<svg xmlns="http://www.w3.org/2000/svg" version="1.1" xmlns:xlink="http://www.w3.org/1999/xlink" xmlns:svgjs="http://svgjs.dev/svgjs" width="1000" height="116" viewBox="0 0 1000 116"><g transform="matrix(1,0,0,1,-0.6060558434109566,0.3454639128981043)"><svg viewBox="0 0 396 46" data-background-color="#ffffff" preserveAspectRatio="xMidYMid meet" height="116" width="1000" xmlns="http://www.w3.org/2000/svg" xmlns:xlink="http://www.w3.org/1999/xlink"><g id="tight-bounds" transform="matrix(1,0,0,1,0.23999811399073678,-0.13699431028717868)"><svg viewBox="0 0 395.52 46.273988620574336" height="46.273988620574336" width="395.52"><g><svg viewBox="0 0 457.8862319642195 53.570545831892076" height="46.273988620574336" width="395.52"><g transform="matrix(1,0,0,1,62.36623196421954,7.403744033206504)"><svg viewBox="0 0 395.52 38.76305776547907" height="38.76305776547907" width="395.52"><g id="textblocktransform"><svg viewBox="0 0 395.52 38.76305776547907" height="38.76305776547907" width="395.52" id="textblock"><g><svg viewBox="0 0 395.52 38.76305776547907" height="38.76305776547907" width="395.52"><g transform="matrix(1,0,0,1,0,0)"><svg width="395.52" viewBox="2.4000000953674316 -34.849998474121094 433.6199951171875 42.5" height="38.76305776547907" data-palette-color="#2336df"><path d="M34.4-7.5Q34.4-6.6 34.9-6.13 35.4-5.65 36.15-5.65L36.15-5.65Q37.9-5.65 39.28-7.93 40.65-10.2 40.65-16.05L40.65-16.05Q40.65-24.15 36.13-28.05 31.6-31.95 23.75-31.95L23.75-31.95Q15.2-31.95 10.45-27.18 5.7-22.4 5.7-13.05L5.7-13.05Q5.7-4.1 9.73 0.33 13.75 4.75 22.05 4.75L22.05 4.75Q23.85 4.75 26.43 4.28 29 3.8 30.3 3.15L30.3 3.15 30.3 6.3Q28.8 6.85 26.3 7.25 23.8 7.65 22.05 7.65L22.05 7.65Q12.65 7.65 7.53 2.55 2.4-2.55 2.4-13.1L2.4-13.1Q2.4-20.7 5.25-25.58 8.1-30.45 12.9-32.65 17.7-34.85 23.8-34.85L23.8-34.85Q33-34.85 38.48-30.23 43.95-25.6 43.95-16L43.95-16Q43.95-10.65 42.43-7.3 40.9-3.95 38.6-2.53 36.3-1.1 33.8-1.1L33.8-1.1Q31.1-1.1 29.85-2.15 28.6-3.2 28.15-5.15L28.15-5.15 27.95-5.15Q26.2-3.15 24.4-2.13 22.6-1.1 19.95-1.1L19.95-1.1Q16.4-1.1 14.1-2.58 11.8-4.05 11.8-8.1L11.8-8.1Q11.8-11.4 13.68-13.18 15.55-14.95 18.95-15.58 22.35-16.2 27.65-16.2L27.65-16.2 27.65-18Q27.65-19.55 26.7-20.55 25.75-21.55 23.4-21.55L23.4-21.55Q21.25-21.55 20.23-20.55 19.2-19.55 19.2-18.55L19.2-18.55 19.2-18.2 12.6-18.2Q12.55-18.5 12.55-19.05L12.55-19.05Q12.55-21.05 13.88-22.65 15.2-24.25 17.6-25.15 20-26.05 23.1-26.05L23.1-26.05 24.1-26.05Q29.15-26.05 31.78-24.05 34.4-22.05 34.4-18.55L34.4-18.55 34.4-7.5ZM27.65-12.35Q23.25-12.35 21.05-11.48 18.85-10.6 18.85-8.6L18.85-8.6Q18.85-7.05 19.73-6.38 20.6-5.7 22.3-5.7L22.3-5.7Q24.45-5.7 26.05-7.25 27.65-8.8 27.65-11.25L27.65-11.25 27.65-12.35ZM73.95-34.3Q78.2-34.3 81.67-32.5 85.15-30.7 87.2-27.25 89.25-23.8 89.25-19.1L89.25-19.1 89.25-15.2Q89.25-10.5 87.2-7.05 85.15-3.6 81.67-1.8 78.2 0 73.95 0L73.95 0 60.95 0 60.95-34.3 73.95-34.3ZM68.7-28.15L68.7-6.15 73.95-6.15Q77.15-6.15 79.15-8.22 81.15-10.3 81.15-14.1L81.15-14.1 81.15-20.2Q81.15-24 79.15-26.08 77.15-28.15 73.95-28.15L73.95-28.15 68.7-28.15ZM95.24-28.15L95.24-34.3 111.04-34.3 111.04-28.15 107.04-28.15 107.04-6.15 111.04-6.15 111.04 0 95.24 0 95.24-6.15 99.29-6.15 99.29-28.15 95.24-28.15ZM144.14 0L116.79 0 116.79-2.45 132.59-28.15 117.99-28.15 117.99-34.3 143.74-34.3 143.74-31.8 127.99-6.15 144.14-6.15 144.14 0ZM172.34 0L169.84-6.75 156.19-6.75 153.79 0 146.34 0 158.79-34.3 167.99-34.3 180.44 0 172.34 0ZM162.94-26.05L158.29-12.6 167.79-12.6Q165.89-18.25 163.19-26.05L163.19-26.05 162.94-26.05ZM181.04-11.4L188.29-11.4 188.29-9.35Q188.29-7.85 189.39-6.75 190.49-5.65 191.94-5.65L191.94-5.65Q193.59-5.65 194.66-6.68 195.74-7.7 195.74-9.35L195.74-9.35 195.74-34.3 203.29-34.3 203.29-9.15Q203.29-4.55 200.29-2.02 197.29 0.5 192.49 0.5L192.49 0.5 191.49 0.5Q186.69 0.5 183.86-2 181.04-4.5 181.04-9.15L181.04-9.15 181.04-11.4ZM231.23 0L220.48-15.8Q219.93-16.6 218.98-18.18 218.03-19.75 217.73-20.25L217.73-20.25 217.53-20.1 217.53 0 210.48 0 210.48-34.3 217.03-34.3 227.83-18.4 229.33-16.05Q230.13-14.65 230.58-14L230.58-14 230.73-14.15 230.73-34.3 237.78-34.3 237.78 0 231.23 0ZM274.18-24.15L274.18-24.6Q274.18-26.5 272.68-27.58 271.18-28.65 268.53-28.65L268.53-28.65Q265.78-28.65 264.25-27.78 262.73-26.9 262.73-25.45L262.73-25.45Q262.73-24.2 263.68-23.38 264.63-22.55 266.1-22.05 267.58-21.55 270.13-20.95L270.13-20.95Q273.88-20.05 276.3-19.1 278.73-18.15 280.45-16.15 282.18-14.15 282.18-10.8L282.18-10.8Q282.18-4.95 278.4-2.23 274.63 0.5 268.03 0.5L268.03 0.5Q262.03 0.5 258.1-2.13 254.18-4.75 254.18-10.1L254.18-10.1 254.23-11.2 261.53-11.2 261.48-10.4Q261.48-8.2 263.13-6.93 264.78-5.65 267.78-5.65L267.78-5.65Q271.28-5.65 272.8-6.75 274.33-7.85 274.33-9.55L274.33-9.55Q274.33-10.85 273.4-11.68 272.48-12.5 271.05-12.98 269.63-13.45 267.08-14.05L267.08-14.05Q263.28-15 260.88-15.95 258.48-16.9 256.73-19 254.98-21.1 254.98-24.65L254.98-24.65Q254.98-27.95 256.78-30.25 258.58-32.55 261.6-33.68 264.63-34.8 268.38-34.8L268.38-34.8Q274.13-34.8 277.78-32.27 281.43-29.75 281.43-24.75L281.43-24.75 281.43-24.15 274.18-24.15ZM311.63-28.1L301.93-28.1 301.93 0 294.28 0 294.28-28.1 284.53-28.1 284.53-34.3 311.63-34.3 311.63-28.1ZM342.47-10.9Q342.47-7.5 340.87-4.9 339.27-2.3 336.32-0.9 333.37 0.5 329.52 0.5L329.52 0.5 328.12 0.5Q324.27 0.5 321.35-0.9 318.42-2.3 316.82-4.9 315.22-7.5 315.22-10.9L315.22-10.9 315.22-34.3 322.92-34.3 322.92-11.05Q322.92-8.7 324.6-7.15 326.27-5.6 328.87-5.6L328.87-5.6Q331.52-5.6 333.15-7.13 334.77-8.65 334.77-11.05L334.77-11.05 334.77-34.3 342.47-34.3 342.47-10.9ZM362.27-34.3Q366.52-34.3 370-32.5 373.47-30.7 375.52-27.25 377.57-23.8 377.57-19.1L377.57-19.1 377.57-15.2Q377.57-10.5 375.52-7.05 373.47-3.6 370-1.8 366.52 0 362.27 0L362.27 0 349.27 0 349.27-34.3 362.27-34.3ZM357.02-28.15L357.02-6.15 362.27-6.15Q365.47-6.15 367.47-8.22 369.47-10.3 369.47-14.1L369.47-14.1 369.47-20.2Q369.47-24 367.47-26.08 365.47-28.15 362.27-28.15L362.27-28.15 357.02-28.15ZM383.57-28.15L383.57-34.3 399.37-34.3 399.37-28.15 395.37-28.15 395.37-6.15 399.37-6.15 399.37 0 383.57 0 383.57-6.15 387.62-6.15 387.62-28.15 383.57-28.15ZM436.02-14.7Q436.02-10 433.97-6.55 431.92-3.1 428.44-1.3 424.97 0.5 420.72 0.5L420.72 0.5Q416.47 0.5 412.99-1.3 409.52-3.1 407.47-6.55 405.42-10 405.42-14.7L405.42-14.7 405.42-19.6Q405.42-24.3 407.47-27.75 409.52-31.2 412.99-33 416.47-34.8 420.72-34.8L420.72-34.8Q424.97-34.8 428.44-33 431.92-31.2 433.97-27.75 436.02-24.3 436.02-19.6L436.02-19.6 436.02-14.7ZM427.92-20.7Q427.92-24.5 425.92-26.58 423.92-28.65 420.72-28.65L420.72-28.65Q417.52-28.65 415.52-26.58 413.52-24.5 413.52-20.7L413.52-20.7 413.52-13.6Q413.52-9.8 415.52-7.73 417.52-5.65 420.72-5.65L420.72-5.65Q423.92-5.65 425.92-7.73 427.92-9.8 427.92-13.6L427.92-13.6 427.92-20.7Z" opacity="1" transform="matrix(1,0,0,1,0,0)" fill="#2336df" class="wordmark-text-0" data-fill-palette-color="primary" id="text-0"></path></svg></g></svg></g></svg></g></svg></g><g><svg viewBox="0 0 53.215204339176296 53.570545831892076" height="53.570545831892076" width="53.215204339176296"><g><svg xmlns="http://www.w3.org/2000/svg" xmlns:xlink="http://www.w3.org/1999/xlink" version="1.1" x="0" y="0" viewBox="1 1 62 62.41400146484375" style="enable-background:new 0 0 64 64;" xml:space="preserve" height="53.570545831892076" width="53.215204339176296" class="icon-icon-0" data-fill-palette-color="accent" id="icon-0"><g fill="#24a8df" data-fill-palette-color="accent"><path d="M58 40h-2.586l2.944-2.943C61.352 34.062 63 30.083 63 25.849c0-7.41-5.118-13.63-12-15.357V7h2V1h-6v6h2v3.117C48.392 10.046 47.777 10 47.151 10c-4.233 0-8.214 1.648-11.207 4.642L32 18.586l-3.944-3.944C25.063 11.648 21.083 10 16.849 10 8.11 10 1 17.11 1 25.849c0 4.233 1.648 8.213 4.642 11.208l3.725 3.725L1.984 45l8.75 5h7.852L32 63.414 45.414 50H58c2.757 0 5-2.243 5-5S60.757 40 58 40zM49 3h2v2h-2V3zM13 42h36v6H13V42zM51 42h2v6h-2V42zM3 25.849C3 18.213 9.213 12 16.849 12c3.699 0 7.177 1.44 9.793 4.056L32 21.414l5.358-5.358C39.974 13.44 43.452 12 47.151 12c0.628 0 1.243 0.057 1.849 0.138V29c0 4.411-3.589 8-8 8-3.409 0-6.45-2.222-7.55-5.39C34.369 31.097 35 30.126 35 29c0-1.466-1.059-2.685-2.451-2.945C31.27 21.865 27.449 19 23 19c-5.514 0-10 4.486-10 10v3h-2v6h6v-6h-2v-3c0-4.411 3.589-8 8-8 3.409 0 6.45 2.222 7.55 5.39C29.631 26.903 29 27.874 29 29c0 1.466 1.059 2.685 2.451 2.945C32.73 36.135 36.551 39 41 39c5.514 0 10-4.486 10-10V12.556c5.768 1.673 10 6.994 10 13.294 0 3.699-1.44 7.177-4.056 9.793L52.586 40H11.414l-4.358-4.357C4.44 33.026 3 29.548 3 25.849zM32 28c0.551 0 1 0.449 1 1s-0.449 1-1 1-1-0.449-1-1S31.449 28 32 28zM15 34v2h-2v-2H15zM6.016 45L11 42.152v5.696L6.016 45zM32 60.586L21.414 50h21.172L32 60.586zM58 48h-3v-6h3c1.654 0 3 1.346 3 3S59.654 48 58 48z" fill="#24a8df" data-fill-palette-color="accent"></path><rect x="37" y="28" width="2" height="2" fill="#24a8df" data-fill-palette-color="accent"></rect><rect x="41" y="28" width="2" height="2" fill="#24a8df" data-fill-palette-color="accent"></rect><rect x="45" y="28" width="2" height="2" fill="#24a8df" data-fill-palette-color="accent"></rect><rect x="25" y="28" width="2" height="2" fill="#24a8df" data-fill-palette-color="accent"></rect><rect x="21" y="28" width="2" height="2" fill="#24a8df" data-fill-palette-color="accent"></rect><rect x="17" y="28" width="2" height="2" fill="#24a8df" data-fill-palette-color="accent"></rect></g></svg></g></svg></g></svg></g><defs></defs></svg><rect width="395.52" height="46.273988620574336" fill="none" stroke="none" visibility="hidden"></rect></g></svg></g></svg>